<?xml version="1.0" standalone="no"?>
<!DOCTYPE svg PUBLIC "-//W3C//DTD SVG 20010904//EN"
 "http://www.w3.org/TR/2001/REC-SVG-20010904/DTD/svg10.dtd">
<svg version="1.0" xmlns="http://www.w3.org/2000/svg"
 width="204.000000pt" height="192.000000pt" viewBox="0 0 204.000000 192.000000"
 preserveAspectRatio="xMidYMid meet">

<g transform="translate(0.000000,192.000000) scale(0.100000,-0.100000)"
fill="#000000" stroke="none">
<path d="M450 960 l0 -580 570 0 570 0 0 200 0 200 -93 0 -94 0 -32 -49 c-41
-64 -109 -123 -180 -158 -51 -26 -65 -28 -171 -28 -106 0 -119 3 -175 30 -73
35 -163 123 -199 193 -39 76 -53 175 -38 262 7 39 24 94 38 122 35 70 126 158
199 194 56 27 68 29 175 29 107 0 119 -2 175 -29 67 -33 173 -133 194 -184
l13 -32 94 0 94 0 0 205 0 205 -570 0 -570 0 0 -580z"/>
</g>
</svg>
