<svg version="1.1" id="Layer_1" xmlns="http://www.w3.org/2000/svg" xmlns:xlink="http://www.w3.org/1999/xlink" x="0px" y="0px"
	 width="100%" viewBox="0 0 204 192" enable-background="new 0 0 204 192" xml:space="preserve">
<path fill="#FBFE52" opacity="1.000000" stroke="none" 
	d="
M139.000000,193.000000 
	C115.312439,193.000000 91.624878,193.000000 67.203674,192.776215 
	C34.533699,179.339935 13.650005,156.273071 4.457547,122.848137 
	C3.111053,117.952110 2.143104,112.951965 1.000000,108.000000 
	C1.000000,100.979050 1.000000,93.958107 1.317746,86.233101 
	C4.365656,64.156487 12.570256,45.232906 26.807251,28.968641 
	C37.893639,16.303614 51.699654,7.588198 67.000000,1.000000 
	C90.687561,1.000000 114.375122,1.000000 138.796326,1.223776 
	C171.467377,14.659145 192.349930,37.727070 201.542465,71.151970 
	C202.888962,76.047958 203.856903,81.048065 205.000000,86.000000 
	C205.000000,93.020950 205.000000,100.041893 204.684204,107.762268 
	C201.606781,129.822235 193.449890,148.767456 179.196777,165.029129 
	C168.101822,177.687592 154.303101,186.413177 139.000000,193.000000 
M116.412758,56.687965 
	C126.818031,60.561157 134.643341,67.408455 140.109390,77.055130 
	C140.769104,78.219421 141.956696,79.868065 142.968781,79.919029 
	C148.539612,80.199570 154.131943,80.053047 159.469437,80.053047 
	C159.469437,66.088799 159.469437,52.870125 159.469437,39.729210 
	C121.512360,39.729210 83.957603,39.729210 46.480682,39.729210 
	C46.480682,78.153542 46.480682,116.210175 46.480682,154.323792 
	C84.385880,154.323792 121.938850,154.323792 159.680435,154.323792 
	C159.680435,141.056976 159.680435,128.118759 159.680435,114.688393 
	C155.068268,114.688393 150.589249,114.878029 146.135239,114.625870 
	C142.822723,114.438332 140.870499,115.368332 139.022797,118.421844 
	C130.282669,132.865707 117.350906,140.333115 100.351501,139.269409 
	C84.217590,138.259872 72.298691,129.872452 65.383774,115.490013 
	C57.510418,99.114120 59.520340,83.136200 71.353096,69.345184 
	C83.060776,55.699940 98.237862,51.688080 116.412758,56.687965 
z"/>
<path fill="#FFFFFD" opacity="1.000000" stroke="none" 
	d="
M139.468658,193.000000 
	C154.303101,186.413177 168.101822,177.687592 179.196777,165.029129 
	C193.449890,148.767456 201.606781,129.822235 204.684204,108.230850 
	C205.000000,136.251007 205.000000,164.501999 205.000000,193.000000 
	C183.313065,193.000000 161.625183,193.000000 139.468658,193.000000 
z"/>
<path fill="#FFFFFD" opacity="1.000000" stroke="none" 
	d="
M66.531342,1.000000 
	C51.699654,7.588198 37.893639,16.303614 26.807251,28.968641 
	C12.570256,45.232906 4.365656,64.156487 1.317746,85.764526 
	C1.000000,57.748989 1.000000,29.497980 1.000000,1.000000 
	C22.686935,1.000000 44.374809,1.000000 66.531342,1.000000 
z"/>
<path fill="#FFFFFD" opacity="1.000000" stroke="none" 
	d="
M205.000000,85.531342 
	C203.856903,81.048065 202.888962,76.047958 201.542465,71.151970 
	C192.349930,37.727070 171.467377,14.659145 139.264984,1.223776 
	C160.936066,1.000000 182.872147,1.000000 205.000000,1.000000 
	C205.000000,29.020603 205.000000,57.041641 205.000000,85.531342 
z"/>
<path fill="#FFFFFD" opacity="1.000000" stroke="none" 
	d="
M1.000000,108.468658 
	C2.143104,112.951965 3.111053,117.952110 4.457547,122.848137 
	C13.650005,156.273071 34.533699,179.339935 66.735016,192.776215 
	C45.063927,193.000000 23.127855,193.000000 1.000000,193.000000 
	C1.000000,164.979401 1.000000,136.958359 1.000000,108.468658 
z"/>
<path fill="#070702" opacity="1.000000" stroke="none" 
	d="
M116.026581,56.561401 
	C98.237862,51.688080 83.060776,55.699940 71.353096,69.345184 
	C59.520340,83.136200 57.510418,99.114120 65.383774,115.490013 
	C72.298691,129.872452 84.217590,138.259872 100.351501,139.269409 
	C117.350906,140.333115 130.282669,132.865707 139.022797,118.421844 
	C140.870499,115.368332 142.822723,114.438332 146.135239,114.625870 
	C150.589249,114.878029 155.068268,114.688393 159.680435,114.688393 
	C159.680435,128.118759 159.680435,141.056976 159.680435,154.323792 
	C121.938850,154.323792 84.385880,154.323792 46.480682,154.323792 
	C46.480682,116.210175 46.480682,78.153542 46.480682,39.729210 
	C83.957603,39.729210 121.512360,39.729210 159.469437,39.729210 
	C159.469437,52.870125 159.469437,66.088799 159.469437,80.053047 
	C154.131943,80.053047 148.539612,80.199570 142.968781,79.919029 
	C141.956696,79.868065 140.769104,78.219421 140.109390,77.055130 
	C134.643341,67.408455 126.818031,60.561157 116.026581,56.561401 
z"/>
</svg>